<svg width="16" height="16" viewBox="0 0 16 16" fill="none" xmlns="http://www.w3.org/2000/svg">
<path d="M8.00179 3.8987C5.73162 3.8987 3.9005 5.72982 3.9005 7.99999C3.9005 10.2701 5.73162 12.1013 8.00179 12.1013C10.2719 12.1013 12.1031 10.2701 12.1031 7.99999C12.1031 5.72982 10.2719 3.8987 8.00179 3.8987ZM8.00179 10.6664C6.53475 10.6664 5.33542 9.47059 5.33542 7.99999C5.33542 6.52938 6.53118 5.33362 8.00179 5.33362C9.47239 5.33362 10.6682 6.52938 10.6682 7.99999C10.6682 9.47059 9.46882 10.6664 8.00179 10.6664ZM13.2274 3.73094C13.2274 4.26278 12.7991 4.68755 12.2708 4.68755C11.739 4.68755 11.3142 4.25922 11.3142 3.73094C11.3142 3.20266 11.7426 2.77433 12.2708 2.77433C12.7991 2.77433 13.2274 3.20266 13.2274 3.73094ZM15.9438 4.70183C15.8831 3.4204 15.5904 2.28532 14.6516 1.35012C13.7165 0.414932 12.5814 0.122239 11.2999 0.0579886C9.97925 -0.0169695 6.02075 -0.0169695 4.70006 0.0579886C3.4222 0.118669 2.28712 0.411363 1.34835 1.34656C0.409593 2.28175 0.120468 3.41683 0.0562186 4.69826C-0.0187395 6.01895 -0.0187395 9.97745 0.0562186 11.2981C0.116899 12.5796 0.409593 13.7147 1.34835 14.6498C2.28712 15.585 3.41863 15.8777 4.70006 15.942C6.02075 16.0169 9.97925 16.0169 11.2999 15.942C12.5814 15.8813 13.7165 15.5886 14.6516 14.6498C15.5868 13.7147 15.8795 12.5796 15.9438 11.2981C16.0187 9.97745 16.0187 6.02252 15.9438 4.70183ZM14.2376 12.7152C13.9592 13.4148 13.4202 13.9538 12.717 14.2358C11.664 14.6534 9.16542 14.557 8.00179 14.557C6.83815 14.557 4.33597 14.6498 3.28656 14.2358C2.58695 13.9574 2.04796 13.4184 1.76598 12.7152C1.34835 11.6622 1.44473 9.16362 1.44473 7.99999C1.44473 6.83635 1.35192 4.33417 1.76598 3.28476C2.04439 2.58515 2.58338 2.04616 3.28656 1.76418C4.33954 1.34656 6.83815 1.44293 8.00179 1.44293C9.16542 1.44293 11.6676 1.35012 12.717 1.76418C13.4166 2.0426 13.9556 2.58158 14.2376 3.28476C14.6552 4.33774 14.5588 6.83635 14.5588 7.99999C14.5588 9.16362 14.6552 11.6658 14.2376 12.7152Z" fill="#EDEDF5"/>
</svg>
