<svg width="18" height="24" viewBox="0 0 18 24" fill="none" xmlns="http://www.w3.org/2000/svg">
<path d="M8.99998 4.8C8.68172 4.8 8.37649 4.92643 8.15145 5.15147C7.9264 5.37652 7.79998 5.68174 7.79998 6V8.4C7.79998 8.71826 7.9264 9.02348 8.15145 9.24853C8.37649 9.47357 8.68172 9.6 8.99998 9.6C9.31823 9.6 9.62346 9.47357 9.8485 9.24853C10.0735 9.02348 10.2 8.71826 10.2 8.4V6C10.2 5.68174 10.0735 5.37652 9.8485 5.15147C9.62346 4.92643 9.31823 4.8 8.99998 4.8ZM8.99998 0C6.77216 0 4.63558 0.884997 3.06028 2.4603C1.48497 4.03561 0.599976 6.17218 0.599976 8.4V15.6C0.599976 17.8278 1.48497 19.9644 3.06028 21.5397C4.63558 23.115 6.77216 24 8.99998 24C11.2278 24 13.3644 23.115 14.9397 21.5397C16.515 19.9644 17.4 17.8278 17.4 15.6V8.4C17.4 6.17218 16.515 4.03561 14.9397 2.4603C13.3644 0.884997 11.2278 0 8.99998 0ZM15 15.6C15 17.1913 14.3678 18.7174 13.2426 19.8426C12.1174 20.9679 10.5913 21.6 8.99998 21.6C7.40868 21.6 5.88255 20.9679 4.75733 19.8426C3.63212 18.7174 2.99998 17.1913 2.99998 15.6V8.4C2.99998 6.8087 3.63212 5.28258 4.75733 4.15736C5.88255 3.03214 7.40868 2.4 8.99998 2.4C10.5913 2.4 12.1174 3.03214 13.2426 4.15736C14.3678 5.28258 15 6.8087 15 8.4V15.6Z" fill="#EDEDF5"/>
</svg>
